<svg xmlns="http://www.w3.org/2000/svg" xmlns:xlink="http://www.w3.org/1999/xlink" width="120" height="120" viewBox="0 0 120 120">
  <defs>
    <linearGradient id="仅图标-b" x1="23.428%" x2="65.613%" y1="7.93%" y2="91.245%">
      <stop offset="0%" stop-color="#FFF" stop-opacity=".5"/>
      <stop offset="100%" stop-opacity=".5"/>
    </linearGradient>
    <circle id="仅图标-a" cx="7.5" cy="44" r="7.5"/>
    <linearGradient id="仅图标-c" x1="6.452%" x2="90.491%" y1="10.862%" y2="88.063%">
      <stop offset="0%" stop-color="#74D6FF"/>
      <stop offset="100%" stop-color="#4075FF"/>
    </linearGradient>
    <linearGradient id="仅图标-d" x1="50%" x2="50%" y1="6.171%" y2="100%">
      <stop offset="0%" stop-color="#6ECAFF" stop-opacity="0"/>
      <stop offset="100%" stop-color="#1849BF"/>
    </linearGradient>
    <linearGradient id="仅图标-e" x1="50%" x2="50%" y1="23.18%" y2="100%">
      <stop offset="0%" stop-color="#70CEFF" stop-opacity="0"/>
      <stop offset="100%" stop-color="#1849BF"/>
    </linearGradient>
    <linearGradient id="仅图标-g" x1="23.428%" x2="65.613%" y1="35.347%" y2="64.365%">
      <stop offset="0%" stop-color="#FFF" stop-opacity=".5"/>
      <stop offset="100%" stop-opacity=".5"/>
    </linearGradient>
    <path id="仅图标-f" d="M72.0731707,26 C82,26 86.5243902,36.3076923 90,37 C93.4756098,37.6923077 96,31.5 102.487805,31.5384615 C109.397796,31.5794259 115,37.1176823 115,44 C115,50.8823177 109.397796,56.4205741 102.487805,56.4615385 C96,56.5 93.4756098,49.3076923 90,50 C86.5243902,50.6923077 82,62 72.0731707,62 C62.0916342,62 54,53.9411255 54,44 C54,34.0588745 62.0916342,26 72.0731707,26 Z"/>
    <radialGradient id="仅图标-h" cx="1.384%" cy="100%" r="112.436%" fx="1.384%" fy="100%" gradientTransform="scale(.78825 1) rotate(-28.727 .016 .993)">
      <stop offset="0%" stop-color="#5CAAFC"/>
      <stop offset="37.806%" stop-color="#5FB1FE"/>
      <stop offset="100%" stop-color="#1849BF"/>
    </radialGradient>
    <circle id="仅图标-i" cx="23" cy="44" r="11"/>
  </defs>
  <g fill="none" fill-rule="evenodd">
    <rect width="120" height="120" fill="#FFF"/>
    <g transform="translate(4 16)">
      <use fill="#1D4CD0" xlink:href="#仅图标-a"/>
      <use fill="url(#仅图标-b)" fill-opacity=".5" xlink:href="#仅图标-a" style="mix-blend-mode:overlay"/>
      <g transform="rotate(90 50 50)">
        <path fill="url(#仅图标-c)" d="M44,0 C68.300529,0 88,19.699471 88,44 C88,68.300529 68.300529,88 44,88 C19.699471,88 0,68.300529 0,44 C0,19.699471 19.699471,0 44,0 Z M44,16 C28.536027,16 16,28.536027 16,44 C16,59.463973 28.536027,72 44,72 C59.463973,72 72,59.463973 72,44 C72,28.536027 59.463973,16 44,16 Z"/>
        <path fill="url(#仅图标-d)" d="M44,0 C68.300529,0 88,19.699471 88,44 C88,44.9978511 87.9667834,45.987944 87.9013957,46.9692335 C79.1073974,61.8046504 63.0083882,71.7985961 44.5597633,71.9969915 L44,72 C59.463973,72 72,59.463973 72,44 C72,28.536027 59.463973,16 44,16 L44,0 L44,0 Z"/>
        <path fill="url(#仅图标-e)" d="M0.274407651,16 C24.5749366,16 44.2744077,35.699471 44.2744077,60 C44.2744077,61.6784159 44.1804305,63.3348823 43.9974511,64.9644243 C34.4447253,78.8759998 18.4250787,88 0.274407651,88 L0.7534771,87.9959843 C15.9964609,87.7402642 28.2744077,75.3039662 28.2744077,60 C28.2744077,44.536027 15.7383806,32 0.274407651,32 L0.274407651,16 L0.274407651,16 Z" transform="rotate(180 22.274 52)"/>
      </g>
      <use fill="#1D4CD0" xlink:href="#仅图标-f"/>
      <use fill="url(#仅图标-g)" fill-opacity=".5" xlink:href="#仅图标-f" style="mix-blend-mode:overlay"/>
      <path fill="url(#仅图标-h)" d="M92.6184587,36.5657161 C95.0653915,35.0795665 97.6949242,31.7117367 102.484786,31.74 C109.394778,31.7811434 114.996981,37.3193998 114.996981,44.2017175 C114.996981,51.0840351 109.394778,56.6222916 102.484786,56.663256 C95.9969813,56.7017175 93.4725911,49.5094098 89.9969813,50.2017175 C87.4119312,50.7166344 84.246704,57.1038977 78.71,60.3433231 C83.4969813,53.2017175 83.1826964,48.5129595 85.9969813,43.7017175 C88.8112662,38.8904755 91.7510533,37.0925366 92.6184587,36.5657161 Z"/>
      <use fill="#1D4CD0" xlink:href="#仅图标-i"/>
      <use fill="url(#仅图标-b)" fill-opacity=".5" xlink:href="#仅图标-i" style="mix-blend-mode:overlay"/>
    </g>
  </g>
</svg>
