<?xml version="1.0" standalone="no"?><!DOCTYPE svg PUBLIC "-//W3C//DTD SVG 1.1//EN" "http://www.w3.org/Graphics/SVG/1.1/DTD/svg11.dtd"><svg t="1625023361396" class="icon" viewBox="0 0 1030 1024" version="1.1" xmlns="http://www.w3.org/2000/svg" p-id="8393" xmlns:xlink="http://www.w3.org/1999/xlink" width="64.375" height="64"><defs><style type="text/css"></style></defs><path d="M943.503266 536.869304H78.974473c-12.30646 0-22.049074-11.793691-22.049074-26.151227s9.742614-26.151227 22.049074-26.151227H943.503266c12.30646 0 22.049074 11.793691 22.049074 26.151227s-9.742614 26.151227-22.049074 26.151227z" fill="#8a8a8a" p-id="8394"></path><path d="M16.416636 362.015023A16.408613 16.408613 0 0 1 0.008023 345.09364V147.677516A148.190285 148.190285 0 0 1 148.198309 0h198.441662a16.408613 16.408613 0 1 1 0 32.817226H148.198309A114.86029 114.86029 0 0 0 33.338018 147.677516v197.416124a16.408613 16.408613 0 0 1-16.921382 16.921383z m0 0" fill="#8a8a8a" p-id="8395"></path><path d="M1007.59941 362.015023a16.408613 16.408613 0 0 1-16.408613-16.408613V147.677516a114.86029 114.86029 0 0 0-114.86029-114.86029h-198.441662a16.408613 16.408613 0 1 1 0-32.817226h198.441662a148.190285 148.190285 0 0 1 148.190285 147.677516v197.416124a16.408613 16.408613 0 0 1-16.408612 16.408613z m0 0M346.639971 1020.923385H148.198309A148.190285 148.190285 0 0 1 0.008023 873.245869v-197.928894a16.408613 16.408613 0 0 1 32.817226 0v197.928894a114.86029 114.86029 0 0 0 114.860291 114.86029h198.954431a16.408613 16.408613 0 1 1 0 32.817226z m0 0" fill="#8a8a8a" p-id="8396"></path><path d="M876.330507 1020.923385h-198.441662a16.408613 16.408613 0 1 1 0-32.817226h198.441662a114.86029 114.86029 0 0 0 114.86029-114.86029v-197.928894a16.408613 16.408613 0 0 1 32.817226 0v197.928894a148.190285 148.190285 0 0 1-148.190285 147.677516z m0 0" fill="#8a8a8a" p-id="8397"></path></svg>